<mxfile modified="2023-01-18T12:13:15.262Z" host="app.diagrams.net" agent="5.0 (X11; Linux x86_64) AppleWebKit/537.36 (KHTML, like Gecko) Chrome/109.0.0.0 Safari/537.36" etag="H81dqGcdWGRlS4ERSCXC" version="20.8.5" type="github">
  <diagram id="Ht1M8jgEwFfnCIfOTk4-" name="Page-1">
    <mxGraphModel dx="2603" dy="646" grid="1" gridSize="10" guides="1" tooltips="1" connect="1" arrows="1" fold="1" page="1" pageScale="1" pageWidth="1169" pageHeight="827" math="0" shadow="0">
      <root>
        <mxCell id="0" />
        <mxCell id="1" parent="0" />
        <mxCell id="4BOND8-Qv9bauRRdTnn7-1" value="CloudHub 2" style="points=[[0,0],[0.25,0],[0.5,0],[0.75,0],[1,0],[1,0.25],[1,0.5],[1,0.75],[1,1],[0.75,1],[0.5,1],[0.25,1],[0,1],[0,0.75],[0,0.5],[0,0.25]];outlineConnect=0;gradientColor=none;html=1;whiteSpace=wrap;fontSize=12;fontStyle=0;container=1;pointerEvents=0;collapsible=0;recursiveResize=0;shape=mxgraph.aws4.group;grIcon=mxgraph.aws4.group_aws_cloud;strokeColor=#232F3E;fillColor=none;verticalAlign=top;align=left;spacingLeft=30;fontColor=#232F3E;dashed=0;" parent="1" vertex="1">
          <mxGeometry x="40" y="40" width="1080" height="720" as="geometry" />
        </mxCell>
        <mxCell id="4BOND8-Qv9bauRRdTnn7-2" value="Region&amp;nbsp;EU (London)&amp;nbsp;&lt;span style=&quot;background-color: initial;&quot;&gt;gbr-e1&lt;/span&gt;" style="points=[[0,0],[0.25,0],[0.5,0],[0.75,0],[1,0],[1,0.25],[1,0.5],[1,0.75],[1,1],[0.75,1],[0.5,1],[0.25,1],[0,1],[0,0.75],[0,0.5],[0,0.25]];outlineConnect=0;gradientColor=none;html=1;whiteSpace=wrap;fontSize=12;fontStyle=0;container=1;pointerEvents=0;collapsible=0;recursiveResize=0;shape=mxgraph.aws4.group;grIcon=mxgraph.aws4.group_region;strokeColor=#147EBA;fillColor=none;verticalAlign=top;align=left;spacingLeft=30;fontColor=#147EBA;dashed=1;" parent="4BOND8-Qv9bauRRdTnn7-1" vertex="1">
          <mxGeometry x="40" y="40" width="1000" height="640" as="geometry" />
        </mxCell>
        <mxCell id="4BOND8-Qv9bauRRdTnn7-11" value="Availability Zone 1" style="fillColor=none;strokeColor=#147EBA;dashed=1;verticalAlign=top;fontStyle=0;fontColor=#147EBA;" parent="4BOND8-Qv9bauRRdTnn7-2" vertex="1">
          <mxGeometry x="40" y="40" width="360" height="560" as="geometry" />
        </mxCell>
        <mxCell id="4BOND8-Qv9bauRRdTnn7-18" value="Private Space CH2" style="points=[[0,0],[0.25,0],[0.5,0],[0.75,0],[1,0],[1,0.25],[1,0.5],[1,0.75],[1,1],[0.75,1],[0.5,1],[0.25,1],[0,1],[0,0.75],[0,0.5],[0,0.25]];outlineConnect=0;gradientColor=none;html=1;whiteSpace=wrap;fontSize=12;fontStyle=0;container=1;pointerEvents=0;collapsible=0;recursiveResize=0;shape=mxgraph.aws4.group;grIcon=mxgraph.aws4.group_vpc;strokeColor=#248814;fillColor=none;verticalAlign=top;align=left;spacingLeft=30;fontColor=#AAB7B8;dashed=0;" parent="4BOND8-Qv9bauRRdTnn7-2" vertex="1">
          <mxGeometry x="80" y="80" width="840" height="455" as="geometry" />
        </mxCell>
        <mxCell id="4BOND8-Qv9bauRRdTnn7-17" value="Private subnet" style="points=[[0,0],[0.25,0],[0.5,0],[0.75,0],[1,0],[1,0.25],[1,0.5],[1,0.75],[1,1],[0.75,1],[0.5,1],[0.25,1],[0,1],[0,0.75],[0,0.5],[0,0.25]];outlineConnect=0;gradientColor=none;html=1;whiteSpace=wrap;fontSize=12;fontStyle=0;container=1;pointerEvents=0;collapsible=0;recursiveResize=0;shape=mxgraph.aws4.group;grIcon=mxgraph.aws4.group_security_group;grStroke=0;strokeColor=#147EBA;fillColor=#E6F2F8;verticalAlign=top;align=left;spacingLeft=30;fontColor=#147EBA;dashed=0;" parent="4BOND8-Qv9bauRRdTnn7-18" vertex="1">
          <mxGeometry x="80" y="270" width="130" height="130" as="geometry" />
        </mxCell>
        <mxCell id="4BOND8-Qv9bauRRdTnn7-14" value="SAPI &lt;br&gt;Replica 1 &lt;br&gt;CH2 0.1vCores" style="sketch=0;outlineConnect=0;fontColor=#232F3E;gradientColor=none;fillColor=#D45B07;strokeColor=none;dashed=0;verticalLabelPosition=bottom;verticalAlign=top;align=center;html=1;fontSize=12;fontStyle=0;aspect=fixed;pointerEvents=1;shape=mxgraph.aws4.container_2;" parent="4BOND8-Qv9bauRRdTnn7-17" vertex="1">
          <mxGeometry x="41" y="49.5" width="48" height="31" as="geometry" />
        </mxCell>
        <mxCell id="4BOND8-Qv9bauRRdTnn7-5" value="EAPI &lt;br&gt;Replica 1 &lt;br&gt;CH2 0.1vCores" style="sketch=0;outlineConnect=0;fontColor=#232F3E;gradientColor=none;fillColor=#D45B07;strokeColor=none;dashed=0;verticalLabelPosition=bottom;verticalAlign=top;align=center;html=1;fontSize=12;fontStyle=0;aspect=fixed;pointerEvents=1;shape=mxgraph.aws4.container_2;" parent="4BOND8-Qv9bauRRdTnn7-18" vertex="1">
          <mxGeometry x="121" y="40" width="48" height="31" as="geometry" />
        </mxCell>
        <mxCell id="4BOND8-Qv9bauRRdTnn7-27" style="edgeStyle=orthogonalEdgeStyle;rounded=0;orthogonalLoop=1;jettySize=auto;html=1;" parent="4BOND8-Qv9bauRRdTnn7-18" source="4BOND8-Qv9bauRRdTnn7-26" target="4BOND8-Qv9bauRRdTnn7-5" edge="1">
          <mxGeometry relative="1" as="geometry" />
        </mxCell>
        <mxCell id="4BOND8-Qv9bauRRdTnn7-26" value="Ingress&lt;br&gt;Loac Balancer" style="sketch=0;points=[[0,0,0],[0.25,0,0],[0.5,0,0],[0.75,0,0],[1,0,0],[0,1,0],[0.25,1,0],[0.5,1,0],[0.75,1,0],[1,1,0],[0,0.25,0],[0,0.5,0],[0,0.75,0],[1,0.25,0],[1,0.5,0],[1,0.75,0]];outlineConnect=0;fontColor=#232F3E;gradientColor=#F78E04;gradientDirection=north;fillColor=#D05C17;strokeColor=#ffffff;dashed=0;verticalLabelPosition=bottom;verticalAlign=top;align=center;html=1;fontSize=12;fontStyle=0;aspect=fixed;shape=mxgraph.aws4.resourceIcon;resIcon=mxgraph.aws4.elastic_load_balancing;" parent="4BOND8-Qv9bauRRdTnn7-18" vertex="1">
          <mxGeometry x="381" y="30" width="78" height="78" as="geometry" />
        </mxCell>
        <mxCell id="4BOND8-Qv9bauRRdTnn7-12" value="Availability Zone 2" style="fillColor=none;strokeColor=#147EBA;dashed=1;verticalAlign=top;fontStyle=0;fontColor=#147EBA;" parent="4BOND8-Qv9bauRRdTnn7-2" vertex="1">
          <mxGeometry x="600" y="40" width="360" height="560" as="geometry" />
        </mxCell>
        <mxCell id="4BOND8-Qv9bauRRdTnn7-8" value="EAPI &lt;br&gt;Replica 2 &lt;br&gt;CH2 0.1vCores" style="sketch=0;outlineConnect=0;fontColor=#232F3E;gradientColor=none;fillColor=#D45B07;strokeColor=none;dashed=0;verticalLabelPosition=bottom;verticalAlign=top;align=center;html=1;fontSize=12;fontStyle=0;aspect=fixed;pointerEvents=1;shape=mxgraph.aws4.container_2;" parent="4BOND8-Qv9bauRRdTnn7-2" vertex="1">
          <mxGeometry x="760" y="120" width="48" height="31" as="geometry" />
        </mxCell>
        <mxCell id="4BOND8-Qv9bauRRdTnn7-25" value="PAPI &lt;br&gt;Replica 1 &lt;br&gt;CH2 0.1vCores" style="sketch=0;outlineConnect=0;fontColor=#232F3E;gradientColor=none;fillColor=#D45B07;strokeColor=none;dashed=0;verticalLabelPosition=bottom;verticalAlign=top;align=center;html=1;fontSize=12;fontStyle=0;aspect=fixed;pointerEvents=1;shape=mxgraph.aws4.container_2;" parent="4BOND8-Qv9bauRRdTnn7-2" vertex="1">
          <mxGeometry x="196" y="230" width="48" height="31" as="geometry" />
        </mxCell>
        <mxCell id="4BOND8-Qv9bauRRdTnn7-28" style="edgeStyle=orthogonalEdgeStyle;rounded=0;orthogonalLoop=1;jettySize=auto;html=1;" parent="4BOND8-Qv9bauRRdTnn7-2" source="4BOND8-Qv9bauRRdTnn7-26" target="4BOND8-Qv9bauRRdTnn7-8" edge="1">
          <mxGeometry relative="1" as="geometry" />
        </mxCell>
        <mxCell id="4BOND8-Qv9bauRRdTnn7-4" value="Cloudhub 1 worker 0.1vCores" style="sketch=0;points=[[0,0,0],[0.25,0,0],[0.5,0,0],[0.75,0,0],[1,0,0],[0,1,0],[0.25,1,0],[0.5,1,0],[0.75,1,0],[1,1,0],[0,0.25,0],[0,0.5,0],[0,0.75,0],[1,0.25,0],[1,0.5,0],[1,0.75,0]];outlineConnect=0;fontColor=#232F3E;gradientColor=#F78E04;gradientDirection=north;fillColor=#D05C17;strokeColor=#ffffff;dashed=0;verticalLabelPosition=bottom;verticalAlign=top;align=center;html=1;fontSize=12;fontStyle=0;aspect=fixed;shape=mxgraph.aws4.resourceIcon;resIcon=mxgraph.aws4.ec2;" parent="1" vertex="1">
          <mxGeometry x="120" y="800" width="78" height="78" as="geometry" />
        </mxCell>
        <mxCell id="4BOND8-Qv9bauRRdTnn7-19" value="ACME insurance Data Center" style="points=[[0,0],[0.25,0],[0.5,0],[0.75,0],[1,0],[1,0.25],[1,0.5],[1,0.75],[1,1],[0.75,1],[0.5,1],[0.25,1],[0,1],[0,0.75],[0,0.5],[0,0.25]];outlineConnect=0;gradientColor=none;html=1;whiteSpace=wrap;fontSize=12;fontStyle=0;container=1;pointerEvents=0;collapsible=0;recursiveResize=0;shape=mxgraph.aws4.group;grIcon=mxgraph.aws4.group_corporate_data_center;strokeColor=#5A6C86;fillColor=none;verticalAlign=top;align=left;spacingLeft=30;fontColor=#5A6C86;dashed=0;" parent="1" vertex="1">
          <mxGeometry x="-520" y="320" width="240" height="360" as="geometry" />
        </mxCell>
        <mxCell id="4BOND8-Qv9bauRRdTnn7-21" style="edgeStyle=orthogonalEdgeStyle;rounded=0;orthogonalLoop=1;jettySize=auto;html=1;" parent="1" source="4BOND8-Qv9bauRRdTnn7-20" target="4BOND8-Qv9bauRRdTnn7-19" edge="1">
          <mxGeometry relative="1" as="geometry" />
        </mxCell>
        <mxCell id="4BOND8-Qv9bauRRdTnn7-24" style="edgeStyle=orthogonalEdgeStyle;rounded=0;orthogonalLoop=1;jettySize=auto;html=1;" parent="1" source="4BOND8-Qv9bauRRdTnn7-20" target="4BOND8-Qv9bauRRdTnn7-18" edge="1">
          <mxGeometry relative="1" as="geometry" />
        </mxCell>
        <mxCell id="4BOND8-Qv9bauRRdTnn7-20" value="" style="outlineConnect=0;dashed=0;verticalLabelPosition=bottom;verticalAlign=top;align=center;html=1;shape=mxgraph.aws3.vpn_connection;fillColor=#F58536;gradientColor=none;" parent="1" vertex="1">
          <mxGeometry x="-160" y="440" width="58.5" height="48" as="geometry" />
        </mxCell>
        <mxCell id="4BOND8-Qv9bauRRdTnn7-31" value="Este es un comentario para el diagrama" style="shape=note;strokeWidth=2;fontSize=14;size=20;whiteSpace=wrap;html=1;fillColor=#fff2cc;strokeColor=#d6b656;fontColor=#666600;" parent="1" vertex="1">
          <mxGeometry x="-290" y="60" width="120" height="120" as="geometry" />
        </mxCell>
      </root>
    </mxGraphModel>
  </diagram>
</mxfile>
